<svg width="881" height="378" viewBox="0 0 881 378" fill="none" xmlns="http://www.w3.org/2000/svg">
<g filter="url(#filter0_gn_148_395)">
<mask id="path-1-inside-1_148_395" fill="white">
<path d="M419.787 3.64334C542.682 2.65812 672.576 18.8942 784.214 74.1844C853.668 108.581 916.013 193.448 845.747 260.487C755.636 346.458 581.513 372.178 459.993 373.518C318.071 374.07 147.65 351.528 35.3584 255.749C-9.49783 217.489 -4.88778 164.503 36.9423 125.804C133.946 36.0632 291.48 5.2584 419.787 3.64334ZM575.397 99.0408C527.41 26.5254 429.663 6.75121 357.262 54.9109C284.861 103.071 265.32 200.864 313.652 273.149C361.822 345.192 459.215 364.654 531.372 316.656C603.529 268.658 623.223 171.312 575.397 99.0408ZM761.327 206.179C754.603 240.546 711.766 278.526 683.465 297.56C664.64 310.224 641.095 321.398 620.608 332.342C637.871 328.691 676.336 319.873 691.496 314.452C750.405 293.891 821.582 268.197 847.893 206.202L761.327 206.179ZM625.386 206.376C616.826 252.393 604.254 278.719 570.621 313.25C563.609 320.449 555.698 325.391 548.436 331.653C581.355 321.101 604.854 316.693 637.361 302.178C678.079 283.492 720.145 255.756 736.394 211.854C737.088 209.987 737.771 208.115 738.435 206.239L625.386 206.376ZM118.878 206.139C93.0568 206.361 61.5664 207.064 35.875 206.195C41.232 216.942 46.9691 228.041 55.0166 237.039C89.7884 275.917 146.084 296.772 193.84 312.754C210.025 318.163 226.513 322.62 243.218 326.101L243.234 326.098C248.729 327.788 251.499 328.895 257.269 328.947C256.033 327.055 252.207 326.225 249.599 325.254L249.585 325.255C204.441 304.109 161.455 277.698 132.378 235.231C127.125 227.561 122.174 215.124 118.878 206.139ZM249.597 325.261L243.234 326.098C243.23 326.097 243.224 326.096 243.22 326.095L249.585 325.255C249.589 325.257 249.593 325.259 249.597 325.261ZM147.628 206.139C160.516 248.13 195.352 271.239 232.126 291.678C251.594 302.497 301.022 321.632 322.97 324.117C290.454 296.047 260.356 251.413 257.501 207.565L257.43 206.309C222.352 206.303 182.295 207.249 147.628 206.139ZM444.144 50.0994C462.544 50.0995 480.398 53.7007 497.204 60.8133C513.44 67.6804 528.02 77.5107 540.53 90.0271C553.047 102.538 562.877 117.118 569.744 133.354C576.857 150.16 580.459 168.015 580.459 186.414C580.459 204.813 576.857 222.661 569.744 239.473C562.877 255.71 553.047 270.289 540.53 282.8C528.02 295.316 513.44 305.146 497.204 312.013C480.398 319.126 462.544 322.728 444.144 322.728C425.745 322.728 407.897 319.126 391.085 312.013C374.848 305.146 360.268 295.316 347.758 282.8C335.241 270.289 325.411 255.71 318.544 239.473C311.431 222.661 307.83 204.813 307.83 186.414C307.83 168.015 311.431 150.16 318.544 133.354C325.411 117.118 335.241 102.538 347.758 90.0271C360.268 77.5105 374.848 67.6805 391.085 60.8133C407.897 53.7008 425.745 50.0994 444.144 50.0994ZM444.144 58.4178C373.452 58.4178 316.148 115.721 316.148 186.414C316.149 254.216 368.862 309.687 435.541 314.125C435.614 314.107 435.662 314.04 435.653 313.968C435.647 313.895 435.586 313.837 435.514 313.831C404.25 309.62 380.147 282.83 380.146 250.412C380.146 215.064 408.8 186.414 444.144 186.414C479.489 186.414 508.142 157.763 508.143 122.416C508.143 87.7224 480.54 59.481 446.089 58.451C445.444 58.4388 444.796 58.4178 444.144 58.4178ZM640.127 52.7762C650.706 59.1552 661.753 63.7767 672.241 69.8963C710.9 92.4417 751.252 124.672 762.58 170.109C763.481 173.737 764.333 177.377 765.144 181.026C792.732 180.763 822.162 181.276 849.452 180.437C845.273 170.894 841.927 162.969 835.48 154.471C807.596 117.72 758.212 93.3376 716.484 76.5662C702.611 70.9901 652.974 53.0604 640.127 52.7762ZM570.085 53.2595C605.719 93.7388 624.12 124.334 626.155 180.44C662.247 181.107 705.031 179.101 739.54 180.709C727.142 134.863 701.625 110.827 660.739 88.0281C640.238 76.595 593.709 55.9185 570.085 53.2595ZM307.371 55.8357C292.33 61.7077 275.839 66.3944 261.184 72.4744C219.653 89.7013 170.657 118.462 151.501 161.067C149.535 165.439 146.543 174.601 146.889 179.279C182.752 179.385 219.504 178.977 255.265 179.503C258.32 141.645 266.69 112.717 288.772 81.0955C292.259 76.1024 308.089 59.6223 307.371 55.8357ZM245.275 50.0008C173.885 68.0348 66.0123 101.505 37.8877 177.451C39.4212 179.23 38.4522 178.766 40.6201 179.238C66.1342 179.393 91.6499 179.413 117.164 179.301C119.565 169.88 122.63 156.326 127.114 147.8C145.243 113.332 177.41 88.5256 210.314 69.1043C217.043 65.1332 245.156 53.4683 247.186 50.5066L245.275 50.0008Z"/>
</mask>
<path d="M419.787 3.64334C542.682 2.65812 672.576 18.8942 784.214 74.1844C853.668 108.581 916.013 193.448 845.747 260.487C755.636 346.458 581.513 372.178 459.993 373.518C318.071 374.07 147.65 351.528 35.3584 255.749C-9.49783 217.489 -4.88778 164.503 36.9423 125.804C133.946 36.0632 291.48 5.2584 419.787 3.64334ZM575.397 99.0408C527.41 26.5254 429.663 6.75121 357.262 54.9109C284.861 103.071 265.32 200.864 313.652 273.149C361.822 345.192 459.215 364.654 531.372 316.656C603.529 268.658 623.223 171.312 575.397 99.0408ZM761.327 206.179C754.603 240.546 711.766 278.526 683.465 297.56C664.64 310.224 641.095 321.398 620.608 332.342C637.871 328.691 676.336 319.873 691.496 314.452C750.405 293.891 821.582 268.197 847.893 206.202L761.327 206.179ZM625.386 206.376C616.826 252.393 604.254 278.719 570.621 313.25C563.609 320.449 555.698 325.391 548.436 331.653C581.355 321.101 604.854 316.693 637.361 302.178C678.079 283.492 720.145 255.756 736.394 211.854C737.088 209.987 737.771 208.115 738.435 206.239L625.386 206.376ZM118.878 206.139C93.0568 206.361 61.5664 207.064 35.875 206.195C41.232 216.942 46.9691 228.041 55.0166 237.039C89.7884 275.917 146.084 296.772 193.84 312.754C210.025 318.163 226.513 322.62 243.218 326.101L243.234 326.098C248.729 327.788 251.499 328.895 257.269 328.947C256.033 327.055 252.207 326.225 249.599 325.254L249.585 325.255C204.441 304.109 161.455 277.698 132.378 235.231C127.125 227.561 122.174 215.124 118.878 206.139ZM249.597 325.261L243.234 326.098C243.23 326.097 243.224 326.096 243.22 326.095L249.585 325.255C249.589 325.257 249.593 325.259 249.597 325.261ZM147.628 206.139C160.516 248.13 195.352 271.239 232.126 291.678C251.594 302.497 301.022 321.632 322.97 324.117C290.454 296.047 260.356 251.413 257.501 207.565L257.43 206.309C222.352 206.303 182.295 207.249 147.628 206.139ZM444.144 50.0994C462.544 50.0995 480.398 53.7007 497.204 60.8133C513.44 67.6804 528.02 77.5107 540.53 90.0271C553.047 102.538 562.877 117.118 569.744 133.354C576.857 150.16 580.459 168.015 580.459 186.414C580.459 204.813 576.857 222.661 569.744 239.473C562.877 255.71 553.047 270.289 540.53 282.8C528.02 295.316 513.44 305.146 497.204 312.013C480.398 319.126 462.544 322.728 444.144 322.728C425.745 322.728 407.897 319.126 391.085 312.013C374.848 305.146 360.268 295.316 347.758 282.8C335.241 270.289 325.411 255.71 318.544 239.473C311.431 222.661 307.83 204.813 307.83 186.414C307.83 168.015 311.431 150.16 318.544 133.354C325.411 117.118 335.241 102.538 347.758 90.0271C360.268 77.5105 374.848 67.6805 391.085 60.8133C407.897 53.7008 425.745 50.0994 444.144 50.0994ZM444.144 58.4178C373.452 58.4178 316.148 115.721 316.148 186.414C316.149 254.216 368.862 309.687 435.541 314.125C435.614 314.107 435.662 314.04 435.653 313.968C435.647 313.895 435.586 313.837 435.514 313.831C404.25 309.62 380.147 282.83 380.146 250.412C380.146 215.064 408.8 186.414 444.144 186.414C479.489 186.414 508.142 157.763 508.143 122.416C508.143 87.7224 480.54 59.481 446.089 58.451C445.444 58.4388 444.796 58.4178 444.144 58.4178ZM640.127 52.7762C650.706 59.1552 661.753 63.7767 672.241 69.8963C710.9 92.4417 751.252 124.672 762.58 170.109C763.481 173.737 764.333 177.377 765.144 181.026C792.732 180.763 822.162 181.276 849.452 180.437C845.273 170.894 841.927 162.969 835.48 154.471C807.596 117.72 758.212 93.3376 716.484 76.5662C702.611 70.9901 652.974 53.0604 640.127 52.7762ZM570.085 53.2595C605.719 93.7388 624.12 124.334 626.155 180.44C662.247 181.107 705.031 179.101 739.54 180.709C727.142 134.863 701.625 110.827 660.739 88.0281C640.238 76.595 593.709 55.9185 570.085 53.2595ZM307.371 55.8357C292.33 61.7077 275.839 66.3944 261.184 72.4744C219.653 89.7013 170.657 118.462 151.501 161.067C149.535 165.439 146.543 174.601 146.889 179.279C182.752 179.385 219.504 178.977 255.265 179.503C258.32 141.645 266.69 112.717 288.772 81.0955C292.259 76.1024 308.089 59.6223 307.371 55.8357ZM245.275 50.0008C173.885 68.0348 66.0123 101.505 37.8877 177.451C39.4212 179.23 38.4522 178.766 40.6201 179.238C66.1342 179.393 91.6499 179.413 117.164 179.301C119.565 169.88 122.63 156.326 127.114 147.8C145.243 113.332 177.41 88.5256 210.314 69.1043C217.043 65.1332 245.156 53.4683 247.186 50.5066L245.275 50.0008Z" fill="#1A1A1B"/>
<path fill-rule="evenodd" clip-rule="evenodd" d="M419.787 3.64334L419.764 0.737647L419.751 0.737814L419.787 3.64334ZM784.214 74.1844L782.924 76.7883L782.924 76.7883L784.214 74.1844ZM845.747 260.487L847.753 262.589H847.753L845.747 260.487ZM459.993 373.518L460.004 376.424L460.015 376.424L460.025 376.424L459.993 373.518ZM35.3584 255.749L37.2441 253.538L37.244 253.538L35.3584 255.749ZM36.9423 125.804L38.9156 127.937L38.9156 127.937L36.9423 125.804ZM575.397 99.0408L572.974 100.644V100.644L575.397 99.0408ZM357.262 54.9109L355.652 52.4915V52.4915L357.262 54.9109ZM313.652 273.149L316.068 271.534V271.534L313.652 273.149ZM531.372 316.656L532.981 319.075V319.075L531.372 316.656ZM761.327 206.179L761.328 203.274L758.935 203.273L758.475 205.622L761.327 206.179ZM683.465 297.56L681.843 295.149L681.843 295.149L683.465 297.56ZM620.608 332.342L619.239 329.779L621.21 335.184L620.608 332.342ZM691.496 314.452L690.538 311.708L690.528 311.712L690.518 311.716L691.496 314.452ZM847.893 206.202L850.567 207.337L852.282 203.297L847.893 203.296L847.893 206.202ZM625.386 206.376L625.382 203.47L622.97 203.473L622.529 205.844L625.386 206.376ZM570.621 313.25L572.703 315.277V315.277L570.621 313.25ZM548.435 331.653L546.538 329.452L549.322 334.42L548.435 331.653ZM637.361 302.178L638.546 304.832L638.56 304.826L638.573 304.819L637.361 302.178ZM736.394 211.854L733.67 210.843L733.669 210.846L736.394 211.854ZM738.435 206.239L741.174 207.208L742.546 203.328L738.431 203.333L738.435 206.239ZM118.878 206.139L121.606 205.139L120.9 203.216L118.853 203.234L118.878 206.139ZM35.875 206.195L35.9731 203.291L31.0984 203.126L33.2744 207.491L35.875 206.195ZM55.0166 237.039L52.8507 238.976L52.8507 238.976L55.0166 237.039ZM193.84 312.754L192.918 315.509L192.919 315.51L193.84 312.754ZM243.218 326.101L242.625 328.946L243.172 329.06L243.723 328.963L243.218 326.101ZM257.269 328.947L257.242 331.853L262.668 331.902L259.702 327.359L257.269 328.947ZM249.599 325.254L250.613 322.531L250.021 322.31L249.392 322.355L249.599 325.254ZM132.378 235.231L134.775 233.59L134.775 233.589L132.378 235.231ZM249.597 325.261L249.976 328.141L259.813 326.846L250.831 322.63L249.597 325.261ZM243.22 326.095L242.84 323.214L242.366 328.872L243.22 326.095ZM147.628 206.139L147.721 203.235L143.657 203.105L144.85 206.992L147.628 206.139ZM232.126 291.678L230.714 294.217L230.714 294.217L232.126 291.678ZM322.97 324.117L322.643 327.004L331.986 328.062L324.868 321.917L322.97 324.117ZM257.501 207.565L254.6 207.73L254.601 207.742L254.601 207.754L257.501 207.565ZM257.43 206.309L260.331 206.145L260.175 203.404L257.43 203.404L257.43 206.309ZM444.145 50.0994V47.1936V47.1936V50.0994ZM497.204 60.8133L496.072 63.4892L496.072 63.4895L497.204 60.8133ZM540.53 90.0271L538.475 92.0813L538.476 92.0823L540.53 90.0271ZM569.744 133.354L567.068 134.486L567.068 134.487L569.744 133.354ZM580.459 186.414H583.365V186.414H580.459ZM569.744 239.473L567.068 238.341L567.068 238.342L569.744 239.473ZM540.53 282.8L538.476 280.744L538.475 280.745L540.53 282.8ZM497.204 312.013L496.072 309.337L496.072 309.337L497.204 312.013ZM444.145 322.728V325.634V325.634V322.728ZM391.085 312.013L392.217 309.337L392.217 309.337L391.085 312.013ZM347.758 282.8L349.813 280.745L349.812 280.744L347.758 282.8ZM318.544 239.473L321.22 238.342L321.22 238.341L318.544 239.473ZM307.83 186.414H304.924V186.414H307.83ZM318.544 133.354L321.22 134.487L321.22 134.486L318.544 133.354ZM347.758 90.0271L349.812 92.0823L349.813 92.0813L347.758 90.0271ZM391.085 60.8133L392.217 63.4895L392.217 63.4894L391.085 60.8133ZM444.145 58.4178L444.145 55.512H444.145V58.4178ZM316.148 186.414H313.243V186.414L316.148 186.414ZM435.541 314.125L435.348 317.024L435.804 317.055L436.248 316.943L435.541 314.125ZM435.653 313.968L432.758 314.209L432.762 314.266L432.769 314.323L435.653 313.968ZM435.514 313.831L435.126 316.711L435.197 316.72L435.269 316.726L435.514 313.831ZM380.146 250.412H377.241V250.412L380.146 250.412ZM444.145 186.414V189.32H444.145L444.145 186.414ZM508.143 122.416L511.048 122.416V122.416H508.143ZM446.089 58.451L446.176 55.5465L446.16 55.546L446.143 55.5457L446.089 58.451ZM640.127 52.7761L640.191 49.8711L629.281 49.6297L638.626 55.2646L640.127 52.7761ZM672.241 69.8963L670.777 72.4061L670.777 72.4063L672.241 69.8963ZM762.58 170.109L765.4 169.409L765.399 169.406L762.58 170.109ZM765.144 181.026L762.308 181.657L762.819 183.954L765.172 183.932L765.144 181.026ZM849.452 180.437L849.541 183.342L853.838 183.21L852.114 179.272L849.452 180.437ZM835.48 154.471L837.795 152.715L837.795 152.715L835.48 154.471ZM716.484 76.5662L715.401 79.2623V79.2623L716.484 76.5662ZM570.085 53.2595L570.41 50.372L562.931 49.5302L567.904 55.1795L570.085 53.2595ZM626.155 180.44L623.251 180.546L623.351 183.295L626.102 183.345L626.155 180.44ZM739.54 180.709L739.405 183.611L743.385 183.797L742.345 179.95L739.54 180.709ZM660.739 88.0281L659.324 90.5659L659.324 90.566L660.739 88.0281ZM307.371 55.8357L310.226 55.2945L309.574 51.8563L306.314 53.1289L307.371 55.8357ZM261.184 72.4744L262.297 75.1584L262.297 75.1583L261.184 72.4744ZM151.501 161.067L148.851 159.876L148.851 159.876L151.501 161.067ZM146.889 179.279L143.991 179.493L144.189 182.177L146.88 182.185L146.889 179.279ZM255.265 179.503L255.222 182.408L257.942 182.448L258.161 179.737L255.265 179.503ZM288.772 81.0955L286.39 79.4318L286.39 79.4318L288.772 81.0955ZM245.275 50.0008L246.019 47.1918L245.293 46.9994L244.564 47.1835L245.275 50.0008ZM37.8877 177.451L35.1628 176.442L34.5674 178.05L35.6867 179.348L37.8877 177.451ZM40.6201 179.238L40.0017 182.077L40.2986 182.142L40.6025 182.144L40.6201 179.238ZM117.164 179.301L117.177 182.206L119.425 182.196L119.98 180.018L117.164 179.301ZM127.114 147.8L124.543 146.447L124.542 146.447L127.114 147.8ZM210.314 69.1043L208.838 66.6019L208.837 66.6019L210.314 69.1043ZM247.186 50.5066L249.582 52.1494L251.911 48.7521L247.929 47.6977L247.186 50.5066ZM419.787 3.64334L419.81 6.549C542.48 5.56558 671.86 21.7822 782.924 76.7883L784.214 74.1844L785.503 71.5805C673.292 16.0062 542.884 -0.249348 419.764 0.737678L419.787 3.64334ZM784.214 74.1844L782.924 76.7883C817.206 93.7662 849.589 123.152 864.733 156.302C872.286 172.837 875.515 190.219 872.676 207.46C869.84 224.679 860.914 242.001 843.741 258.385L845.747 260.487L847.753 262.589C865.714 245.454 875.343 227.028 878.41 208.404C881.473 189.803 877.95 171.249 870.019 153.887C854.193 119.245 820.676 88.9991 785.503 71.5804L784.214 74.1844ZM845.747 260.487L843.741 258.385C799.213 300.868 733.718 328.629 663.949 345.919C594.234 363.196 520.555 369.944 459.961 370.613L459.993 373.518L460.025 376.424C520.951 375.752 595.094 368.97 665.347 351.56C735.549 334.162 802.171 306.078 847.753 262.589L845.747 260.487ZM459.993 373.518L459.982 370.613C318.182 371.164 148.693 348.598 37.2441 253.538L35.3584 255.749L33.4727 257.96C146.608 354.459 317.96 376.976 460.004 376.424L459.993 373.518ZM35.3584 255.749L37.244 253.538C15.3898 234.898 5.80694 212.898 6.54707 191.039C7.28934 169.118 18.4322 146.887 38.9156 127.937L36.9423 125.804L34.9691 123.671C13.6224 143.42 1.54514 167.032 0.738896 190.843C-0.069479 214.717 10.4707 238.34 33.4727 257.96L35.3584 255.749ZM36.9423 125.804L38.9156 127.937C135.119 38.9369 291.748 8.16101 419.824 6.54886L419.787 3.64334L419.751 0.737814C291.213 2.35579 132.773 33.1896 34.9691 123.672L36.9423 125.804ZM575.397 99.0408L577.821 97.4372C528.946 23.5813 429.392 3.44153 355.652 52.4915L357.262 54.9109L358.871 57.3303C429.934 10.0609 525.874 29.4696 572.974 100.644L575.397 99.0408ZM357.262 54.9109L355.652 52.4915C281.913 101.542 262.011 201.142 311.237 274.764L313.652 273.149L316.068 271.534C268.629 200.585 287.809 104.6 358.871 57.3303L357.262 54.9109ZM313.652 273.149L311.237 274.764C360.297 348.139 459.49 367.96 532.981 319.075L531.372 316.656L529.763 314.237C458.94 361.347 363.347 342.245 316.068 271.534L313.652 273.149ZM531.372 316.656L532.981 319.075C606.472 270.191 626.53 171.044 577.821 97.4372L575.397 99.0408L572.974 100.644C619.915 171.579 600.586 267.126 529.763 314.237L531.372 316.656ZM761.327 206.179L758.475 205.622C755.273 221.988 743.345 239.58 728.363 255.637C713.451 271.62 695.842 285.734 681.843 295.149L683.465 297.56L685.086 299.971C699.388 290.353 717.349 275.96 732.612 259.602C747.805 243.319 760.657 224.738 764.179 206.737L761.327 206.179ZM683.465 297.56L681.843 295.149C663.181 307.703 639.912 318.735 619.239 329.779L620.608 332.342L621.977 334.905C642.278 324.06 666.098 312.745 685.087 299.971L683.465 297.56ZM620.608 332.342L621.21 335.184C638.425 331.543 677.094 322.688 692.474 317.188L691.496 314.452L690.518 311.716C675.578 317.059 637.317 325.838 620.007 329.499L620.608 332.342ZM691.496 314.452L692.454 317.195C721.876 306.926 754.663 295.278 783.392 278.369C812.152 261.442 837.084 239.108 850.567 207.337L847.893 206.202L845.218 205.067C832.391 235.291 808.579 256.802 780.445 273.36C752.281 289.937 720.025 301.417 690.538 311.708L691.496 314.452ZM847.893 206.202L847.893 203.296L761.328 203.274L761.327 206.179L761.326 209.085L847.892 209.108L847.893 206.202ZM625.386 206.376L622.529 205.844C618.277 228.702 613.06 246.495 604.813 262.809C596.568 279.118 585.221 294.095 568.539 311.222L570.621 313.25L572.703 315.277C589.654 297.873 601.409 282.422 609.999 265.431C618.586 248.446 623.935 230.067 628.242 206.907L625.386 206.376ZM570.621 313.25L568.539 311.222C565.178 314.674 561.575 317.61 557.841 320.507C554.151 323.37 550.245 326.256 546.538 329.452L548.435 331.653L550.333 333.854C553.888 330.788 557.57 328.072 561.403 325.099C565.194 322.159 569.053 319.024 572.703 315.277L570.621 313.25ZM548.435 331.653L549.322 334.42C581.9 323.978 605.855 319.429 638.546 304.832L637.361 302.178L636.177 299.525C603.854 313.957 580.81 318.225 547.549 328.886L548.435 331.653ZM637.361 302.178L638.573 304.819C679.438 286.066 722.447 257.908 739.12 212.863L736.394 211.854L733.669 210.846C717.843 253.603 676.721 280.918 636.149 299.538L637.361 302.178ZM736.394 211.854L739.119 212.865C739.815 210.989 740.504 209.102 741.174 207.208L738.435 206.239L735.695 205.27C735.038 207.128 734.36 208.985 733.67 210.843L736.394 211.854ZM738.435 206.239L738.431 203.333L625.382 203.47L625.386 206.376L625.389 209.282L738.438 209.145L738.435 206.239ZM118.878 206.139L118.853 203.234C92.9646 203.456 61.5829 204.157 35.9731 203.291L35.875 206.195L35.7768 209.099C61.5499 209.97 93.1489 209.266 118.903 209.045L118.878 206.139ZM35.875 206.195L33.2744 207.491C38.6175 218.21 44.508 229.648 52.8507 238.976L55.0166 237.039L57.1825 235.102C49.4302 226.434 43.8466 215.674 38.4755 204.899L35.875 206.195ZM55.0166 237.039L52.8507 238.976C88.2098 278.511 145.255 299.559 192.918 315.509L193.84 312.754L194.762 309.998C146.913 293.986 91.367 273.323 57.1824 235.102L55.0166 237.039ZM193.84 312.754L192.919 315.51C209.212 320.955 225.809 325.441 242.625 328.946L243.218 326.101L243.811 323.257C227.216 319.798 210.839 315.371 194.761 309.998L193.84 312.754ZM243.218 326.101L243.723 328.963L243.739 328.96L243.234 326.098L242.729 323.237L242.713 323.24L243.218 326.101ZM243.234 326.098L242.38 328.876C247.776 330.535 250.97 331.796 257.242 331.853L257.269 328.947L257.295 326.041C252.029 325.994 249.681 325.041 244.089 323.321L243.234 326.098ZM257.269 328.947L259.702 327.359C258.533 325.568 256.451 324.617 255.012 324.051C254.206 323.734 253.372 323.457 252.628 323.213C251.853 322.959 251.196 322.748 250.613 322.531L249.599 325.254L248.584 327.977C249.305 328.245 250.105 328.502 250.819 328.736C251.565 328.98 252.253 329.211 252.885 329.459C253.521 329.709 254.013 329.945 254.373 330.171C254.744 330.403 254.839 330.541 254.835 330.535L257.269 328.947ZM249.599 325.254L249.392 322.355L249.378 322.356L249.585 325.255L249.792 328.153L249.806 328.152L249.599 325.254ZM249.585 325.255L250.817 322.623C205.83 301.551 163.412 275.413 134.775 233.59L132.378 235.231L129.98 236.873C159.499 279.984 203.052 306.667 248.352 327.886L249.585 325.255ZM132.378 235.231L134.775 233.589C129.757 226.262 124.915 214.158 121.606 205.139L118.878 206.139L116.15 207.14C119.434 216.089 124.493 228.86 129.98 236.873L132.378 235.231ZM249.597 325.261L249.217 322.38L242.855 323.218L243.234 326.098L243.614 328.979L249.976 328.141L249.597 325.261ZM243.234 326.098L244.088 323.321C244.061 323.313 244.037 323.306 244.017 323.3C243.997 323.294 243.98 323.29 243.966 323.286C243.953 323.283 243.943 323.28 243.936 323.279C243.932 323.278 243.93 323.277 243.928 323.276C243.926 323.276 243.925 323.276 243.925 323.276C243.924 323.276 243.925 323.276 243.926 323.276C243.927 323.276 243.929 323.277 243.932 323.278C243.938 323.279 243.947 323.281 243.959 323.285C243.971 323.288 243.987 323.292 244.006 323.297C244.025 323.302 244.048 323.309 244.074 323.317L243.22 326.095L242.366 328.872C242.393 328.88 242.417 328.887 242.437 328.893C242.457 328.898 242.474 328.903 242.487 328.907C242.501 328.91 242.511 328.913 242.518 328.914C242.521 328.915 242.524 328.916 242.526 328.916C242.528 328.917 242.529 328.917 242.53 328.917C242.53 328.917 242.529 328.917 242.528 328.917C242.527 328.917 242.525 328.916 242.522 328.915C242.516 328.914 242.507 328.912 242.495 328.908C242.483 328.905 242.467 328.901 242.448 328.896C242.43 328.891 242.407 328.884 242.381 328.876L243.234 326.098ZM243.22 326.095L243.6 328.975L249.965 328.135L249.585 325.255L249.205 322.374L242.84 323.214L243.22 326.095ZM249.585 325.255L248.352 327.886C248.336 327.878 248.322 327.872 248.31 327.866C248.298 327.86 248.288 327.855 248.281 327.851C248.273 327.847 248.267 327.844 248.264 327.843C248.261 327.841 248.258 327.84 248.259 327.84C248.259 327.84 248.26 327.841 248.261 327.841C248.262 327.842 248.264 327.843 248.266 327.844C248.27 327.846 248.277 327.85 248.286 327.854C248.294 327.858 248.305 327.863 248.317 327.87C248.33 327.876 248.345 327.883 248.362 327.891L249.597 325.261L250.831 322.63C250.847 322.638 250.861 322.644 250.873 322.65C250.885 322.656 250.894 322.661 250.902 322.664C250.909 322.668 250.915 322.671 250.918 322.673C250.921 322.674 250.924 322.676 250.923 322.675C250.923 322.675 250.919 322.673 250.915 322.671C250.91 322.669 250.903 322.665 250.895 322.661C250.886 322.657 250.875 322.651 250.863 322.645C250.85 322.639 250.835 322.631 250.817 322.623L249.585 325.255ZM147.628 206.139L144.85 206.992C158.108 250.19 193.939 273.778 230.714 294.217L232.126 291.678L233.538 289.138C196.765 268.7 162.923 246.07 150.406 205.287L147.628 206.139ZM232.126 291.678L230.714 294.217C240.638 299.732 258.021 307.281 275.615 313.75C293.156 320.199 311.289 325.719 322.643 327.004L322.97 324.117L323.297 321.23C312.703 320.03 295.148 314.74 277.621 308.295C260.147 301.871 243.082 294.442 233.537 289.138L232.126 291.678ZM322.97 324.117L324.868 321.917C292.689 294.138 263.187 250.167 260.401 207.376L257.501 207.565L254.601 207.754C257.525 252.66 288.219 297.956 321.071 326.317L322.97 324.117ZM257.501 207.565L260.402 207.401L260.331 206.145L257.43 206.309L254.529 206.474L254.6 207.73L257.501 207.565ZM257.43 206.309L257.43 203.404C222.246 203.398 182.329 204.343 147.721 203.235L147.628 206.139L147.535 209.044C182.26 210.156 222.458 209.209 257.429 209.215L257.43 206.309ZM444.145 50.0994V53.0051C462.159 53.0052 479.628 56.5299 496.072 63.4892L497.204 60.8133L498.337 58.1373C481.169 50.8716 462.929 47.1937 444.145 47.1936V50.0994ZM497.204 60.8133L496.072 63.4895C511.962 70.2102 526.228 79.8287 538.475 92.0813L540.53 90.0271L542.585 87.9729C529.811 75.1926 514.919 65.1507 498.336 58.137L497.204 60.8133ZM540.53 90.0271L538.476 92.0823C550.729 104.329 560.347 118.596 567.068 134.486L569.744 133.354L572.42 132.222C565.407 115.64 555.365 100.746 542.584 87.972L540.53 90.0271ZM569.744 133.354L567.068 134.487C574.027 150.931 577.553 168.4 577.553 186.414H580.459H583.365C583.365 167.629 579.686 149.39 572.42 132.222L569.744 133.354ZM580.459 186.414H577.553C577.553 204.428 574.028 221.891 567.068 238.341L569.744 239.473L572.42 240.606C579.686 223.432 583.365 205.199 583.365 186.414H580.459ZM569.744 239.473L567.068 238.342C560.347 254.232 550.729 268.498 538.476 280.744L540.53 282.8L542.584 284.855C555.365 272.08 565.407 257.188 572.42 240.605L569.744 239.473ZM540.53 282.8L538.475 280.745C526.228 292.998 511.962 302.616 496.072 309.337L497.204 312.013L498.336 314.69C514.919 307.676 529.811 297.634 542.585 284.854L540.53 282.8ZM497.204 312.013L496.072 309.337C479.627 316.297 462.158 319.822 444.145 319.823V322.728V325.634C462.929 325.634 481.169 321.955 498.337 314.689L497.204 312.013ZM444.145 322.728V319.823C426.131 319.823 408.668 316.297 392.217 309.337L391.085 312.013L389.953 314.69C407.126 321.955 425.36 325.634 444.145 325.634V322.728ZM391.085 312.013L392.217 309.337C376.327 302.616 362.06 292.998 349.813 280.745L347.758 282.8L345.703 284.854C358.477 297.634 373.37 307.676 389.953 314.69L391.085 312.013ZM347.758 282.8L349.812 280.744C337.559 268.498 327.941 254.232 321.22 238.342L318.544 239.473L315.868 240.605C322.881 257.188 332.923 272.081 345.704 284.855L347.758 282.8ZM318.544 239.473L321.22 238.341C314.26 221.891 310.736 204.428 310.736 186.414H307.83H304.924C304.924 205.198 308.602 223.432 315.868 240.606L318.544 239.473ZM307.83 186.414H310.736C310.736 168.4 314.261 150.931 321.22 134.487L318.544 133.354L315.868 132.222C308.602 149.39 304.924 167.629 304.924 186.414H307.83ZM318.544 133.354L321.22 134.486C327.941 118.596 337.559 104.329 349.812 92.0823L347.758 90.0271L345.704 87.972C332.923 100.746 322.881 115.64 315.868 132.222L318.544 133.354ZM347.758 90.0271L349.813 92.0813C362.06 79.8286 376.327 70.2103 392.217 63.4895L391.085 60.8133L389.953 58.137C373.37 65.1507 358.477 75.1924 345.703 87.9729L347.758 90.0271ZM391.085 60.8133L392.217 63.4894C408.668 56.5299 426.131 53.0051 444.145 53.0051V50.0994V47.1936C425.36 47.1936 407.126 50.8718 389.953 58.1371L391.085 60.8133ZM444.145 58.4178V55.512C371.847 55.512 313.243 114.116 313.243 186.414H316.148H319.054C319.054 117.326 375.057 61.3235 444.145 61.3235V58.4178ZM316.148 186.414L313.243 186.414C313.243 255.757 367.154 312.485 435.348 317.024L435.541 314.125L435.734 311.225C370.571 306.888 319.054 252.675 319.054 186.414L316.148 186.414ZM435.541 314.125L436.248 316.943C437.628 316.597 438.74 315.255 438.537 313.612L435.653 313.968L432.769 314.323C432.585 312.825 433.599 311.616 434.834 311.306L435.541 314.125ZM435.653 313.968L438.549 313.726C438.419 312.162 437.164 311.054 435.759 310.935L435.514 313.831L435.269 316.726C434.009 316.62 432.876 315.628 432.758 314.209L435.653 313.968ZM435.514 313.831L435.901 310.951C406.06 306.932 383.052 281.356 383.052 250.412L380.146 250.412L377.241 250.412C377.241 284.304 402.439 312.308 435.126 316.711L435.514 313.831ZM380.146 250.412H383.052C383.052 216.669 410.404 189.32 444.145 189.32V186.414V183.508C407.195 183.508 377.241 213.459 377.241 250.412H380.146ZM444.145 186.414L444.145 189.32C481.094 189.319 511.048 159.368 511.048 122.416L508.143 122.416L505.237 122.416C505.237 156.158 477.884 183.508 444.144 183.508L444.145 186.414ZM508.143 122.416H511.048C511.048 86.1464 482.192 56.6233 446.176 55.5465L446.089 58.451L446.002 61.3554C478.888 62.3386 505.237 89.2983 505.237 122.416H508.143ZM446.089 58.451L446.143 55.5457C445.552 55.5346 444.831 55.512 444.145 55.512L444.145 58.4178L444.144 61.3235C444.76 61.3235 445.335 61.3431 446.034 61.3562L446.089 58.451ZM640.127 52.7761L638.626 55.2646C644.023 58.5182 649.521 61.3135 654.911 64.0286C660.329 66.758 665.626 69.4006 670.777 72.4061L672.241 69.8963L673.706 67.3865C668.368 64.2724 662.897 61.5444 657.525 58.8384C652.125 56.1181 646.811 53.4131 641.627 50.2877L640.127 52.7761ZM672.241 69.8963L670.777 72.4063C709.327 94.8881 748.737 126.597 759.761 170.812L762.58 170.109L765.399 169.406C753.766 122.747 712.472 89.9953 673.705 67.3862L672.241 69.8963ZM762.58 170.109L759.76 170.81C760.655 174.412 761.501 178.029 762.308 181.657L765.144 181.026L767.981 180.395C767.164 176.726 766.308 173.062 765.4 169.409L762.58 170.109ZM765.144 181.026L765.172 183.932C792.636 183.67 822.224 184.181 849.541 183.342L849.452 180.437L849.363 177.533C822.099 178.371 792.829 177.856 765.117 178.121L765.144 181.026ZM849.452 180.437L852.114 179.272C847.957 169.778 844.484 161.533 837.795 152.715L835.48 154.471L833.165 156.228C839.369 164.406 842.59 172.009 846.79 181.603L849.452 180.437ZM835.48 154.471L837.795 152.715C809.385 115.271 759.313 90.6485 717.568 73.8701L716.484 76.5662L715.401 79.2623C757.111 96.0268 805.806 120.169 833.166 156.228L835.48 154.471ZM716.484 76.5662L717.568 73.8701C710.565 71.0555 694.63 65.1586 678.834 59.9283C670.934 57.3125 663.036 54.852 656.286 53.0244C649.643 51.2254 643.806 49.9511 640.191 49.8711L640.127 52.7761L640.063 55.6812C642.871 55.7433 648.057 56.8168 654.767 58.6339C661.372 60.4222 669.158 62.846 677.007 65.4452C692.71 70.6448 708.53 76.5008 715.401 79.2623L716.484 76.5662ZM570.085 53.2595L567.904 55.1795C585.661 75.3515 598.958 92.8779 608.092 112.23C617.206 131.539 622.246 152.816 623.251 180.546L626.155 180.44L629.059 180.335C628.03 151.958 622.852 129.885 613.347 109.75C603.864 89.6579 590.143 71.6469 572.266 51.3396L570.085 53.2595ZM626.155 180.44L626.102 183.345C644.203 183.68 663.981 183.344 683.473 183.127C702.998 182.91 722.244 182.812 739.405 183.611L739.54 180.709L739.675 177.806C722.327 176.998 702.926 177.099 683.409 177.316C663.859 177.533 644.199 177.867 626.209 177.535L626.155 180.44ZM739.54 180.709L742.345 179.95C736.04 156.636 726.36 138.75 712.989 123.789C699.647 108.862 682.737 96.9675 662.154 85.4903L660.739 88.0281L659.324 90.566C679.627 101.888 695.918 113.411 708.656 127.662C721.364 141.881 730.642 158.936 736.735 181.467L739.54 180.709ZM660.739 88.0281L662.154 85.4903C651.779 79.704 634.909 71.6261 617.672 64.6595C600.512 57.7239 582.652 51.7499 570.41 50.372L570.085 53.2595L569.76 56.1471C581.142 57.4282 598.359 63.1219 615.494 70.0476C632.553 76.9422 649.198 84.9191 659.324 90.5659L660.739 88.0281ZM307.371 55.8357L306.314 53.1289C298.868 56.036 291.057 58.6519 283.197 61.3262C275.366 63.9904 267.496 66.7096 260.07 69.7904L261.184 72.4744L262.297 75.1583C269.526 72.1592 277.229 69.4951 285.068 66.828C292.878 64.1709 300.833 61.5075 308.428 58.5425L307.371 55.8357ZM261.184 72.4744L260.07 69.7904C218.457 87.0516 168.5 116.173 148.851 159.876L151.501 161.067L154.151 162.259C172.814 120.75 220.849 92.3511 262.297 75.1584L261.184 72.4744ZM151.501 161.067L148.851 159.876C147.801 162.21 146.514 165.734 145.528 169.281C144.57 172.73 143.778 176.612 143.991 179.493L146.889 179.279L149.786 179.065C149.654 177.268 150.185 174.23 151.128 170.836C152.044 167.539 153.235 164.296 154.151 162.259L151.501 161.067ZM146.889 179.279L146.88 182.185C182.804 182.291 219.478 181.883 255.222 182.408L255.265 179.503L255.307 176.597C219.53 176.071 182.699 176.479 146.897 176.373L146.889 179.279ZM255.265 179.503L258.161 179.737C261.185 142.278 269.428 113.873 291.155 82.7591L288.772 81.0955L286.39 79.4318C263.953 111.562 255.456 141.013 252.368 179.269L255.265 179.503ZM288.772 81.0955L291.155 82.7592C291.93 81.6497 293.469 79.8007 295.463 77.4581C297.409 75.1721 299.719 72.494 301.89 69.8621C304.054 67.2384 306.153 64.5739 307.676 62.2901C308.433 61.154 309.105 60.0295 309.57 58.9977C309.966 58.1198 310.496 56.721 310.226 55.2945L307.371 55.8357L304.516 56.377C304.425 55.8971 304.618 55.8416 304.272 56.6092C303.995 57.223 303.521 58.0462 302.841 59.0656C301.489 61.0928 299.546 63.5704 297.407 66.1642C295.274 68.7498 293.018 71.3646 291.038 73.6912C289.105 75.9613 287.359 78.0447 286.39 79.4318L288.772 81.0955ZM245.275 50.0008L244.564 47.1835C208.826 56.2113 163.747 69.1506 124.036 89.4207C84.3759 109.664 49.5993 137.458 35.1628 176.442L37.8877 177.451L40.6126 178.46C54.3006 141.498 87.5227 114.583 126.678 94.5968C165.782 74.6369 210.335 61.8242 245.987 52.818L245.275 50.0008ZM37.8877 177.451L35.6867 179.348C36.004 179.716 36.1833 179.957 36.3224 180.145C36.3678 180.206 36.7412 180.761 37.2722 181.159C37.9353 181.656 38.6259 181.796 38.8889 181.852C39.0397 181.884 39.2323 181.92 39.3856 181.95C39.558 181.984 39.7581 182.024 40.0017 182.077L40.6201 179.238L41.2384 176.399C40.94 176.334 40.6962 176.285 40.5007 176.247C40.2861 176.205 40.1867 176.186 40.0995 176.168C39.8865 176.122 40.3171 176.178 40.7598 176.51C40.959 176.66 41.0744 176.799 41.0938 176.822C41.0987 176.828 41.0907 176.818 40.991 176.684C40.8127 176.443 40.5381 176.075 40.0886 175.554L37.8877 177.451ZM40.6201 179.238L40.6025 182.144C66.1268 182.298 91.6526 182.319 117.177 182.206L117.164 179.301L117.151 176.395C91.6472 176.508 66.1417 176.487 40.6377 176.332L40.6201 179.238ZM117.164 179.301L119.98 180.018C122.437 170.377 125.406 157.29 129.686 149.152L127.114 147.8L124.542 146.447C119.853 155.363 116.693 169.383 114.348 178.583L117.164 179.301ZM127.114 147.8L129.686 149.152C147.437 115.403 179.041 90.9369 211.791 71.6067L210.314 69.1043L208.837 66.6019C175.779 86.1142 143.05 111.261 124.543 146.447L127.114 147.8ZM210.314 69.1043L211.791 71.6067C214.993 69.7169 223.469 65.9122 231.739 62.0611C235.801 60.169 239.766 58.286 242.854 56.6821C244.393 55.8823 245.763 55.1272 246.835 54.4572C247.369 54.1229 247.871 53.7845 248.299 53.4503C248.68 53.1531 249.196 52.7125 249.582 52.1494L247.186 50.5066L244.789 48.8639C244.921 48.671 244.98 48.6686 244.723 48.8696C244.513 49.0335 244.196 49.2533 243.754 49.5292C242.874 50.0795 241.661 50.7527 240.175 51.525C237.21 53.0654 233.345 54.902 229.285 56.7928C221.309 60.5073 212.364 64.5206 208.838 66.6019L210.314 69.1043ZM247.186 50.5066L247.929 47.6977L246.019 47.1918L245.275 50.0008L244.531 52.8097L246.442 53.3155L247.186 50.5066Z" fill="#1A1A1B" mask="url(#path-1-inside-1_148_395)"/>
</g>
<defs>
<filter id="filter0_gn_148_395" x="0.0015626" y="0.0015626" width="880.2" height="377.126" filterUnits="userSpaceOnUse" color-interpolation-filters="sRGB">
<feFlood flood-opacity="0" result="BackgroundImageFix"/>
<feBlend mode="normal" in="SourceGraphic" in2="BackgroundImageFix" result="shape"/>
<feTurbulence type="fractalNoise" baseFrequency="0.55555558204650879 0.55555558204650879" numOctaves="3" seed="2696" />
<feDisplacementMap in="shape" scale="7.1999998092651367" xChannelSelector="R" yChannelSelector="G" result="displacedImage" width="100%" height="100%" />
<feMerge result="effect1_texture_148_395">
<feMergeNode in="displacedImage"/>
</feMerge>
<feTurbulence type="fractalNoise" baseFrequency="2 2" stitchTiles="stitch" numOctaves="3" result="noise" seed="3578" />
<feColorMatrix in="noise" type="luminanceToAlpha" result="alphaNoise" />
<feComponentTransfer in="alphaNoise" result="coloredNoise1">
<feFuncA type="discrete" tableValues="1 1 1 1 1 1 1 1 1 1 1 1 1 1 1 1 1 1 1 1 1 1 1 1 1 1 1 1 1 1 1 1 1 1 1 1 1 1 1 1 1 1 1 1 1 1 1 1 1 1 1 0 0 0 0 0 0 0 0 0 0 0 0 0 0 0 0 0 0 0 0 0 0 0 0 0 0 0 0 0 0 0 0 0 0 0 0 0 0 0 0 0 0 0 0 0 0 0 0 0 "/>
</feComponentTransfer>
<feComposite operator="in" in2="effect1_texture_148_395" in="coloredNoise1" result="noise1Clipped" />
<feComponentTransfer in="alphaNoise" result="coloredNoise2">
<feFuncA type="discrete" tableValues="0 0 0 0 0 0 0 0 0 0 0 0 0 0 0 0 0 0 0 0 0 0 0 0 0 0 0 0 0 0 0 0 0 0 0 0 0 0 0 0 0 0 0 0 0 0 0 0 0 1 1 1 1 1 1 1 1 1 1 1 1 1 1 1 1 1 1 1 1 1 1 1 1 1 1 1 1 1 1 1 1 1 1 1 1 1 1 1 1 1 1 1 1 1 1 1 1 1 1 1 "/>
</feComponentTransfer>
<feComposite operator="in" in2="effect1_texture_148_395" in="coloredNoise2" result="noise2Clipped" />
<feFlood flood-color="rgba(0, 0, 0, 0.07)" result="color1Flood" />
<feComposite operator="in" in2="noise1Clipped" in="color1Flood" result="color1" />
<feFlood flood-color="rgba(255, 255, 255, 0.25)" result="color2Flood" />
<feComposite operator="in" in2="noise2Clipped" in="color2Flood" result="color2" />
<feMerge result="effect2_noise_148_395">
<feMergeNode in="effect1_texture_148_395" />
<feMergeNode in="color1" />
<feMergeNode in="color2" />
</feMerge>
</filter>
</defs>
</svg>
